<svg xmlns="http://www.w3.org/2000/svg" width="1600" height="1000" viewBox="0 0 1600 1000">
<defs>
<linearGradient id="bg" x1="0" y1="0" x2="1" y2="1"><stop stop-color="#0f172a"/><stop offset="1" stop-color="#e30613"/></linearGradient>
<radialGradient id="glow" cx=".82" cy=".18" r=".45"><stop stop-color="white" stop-opacity=".26"/><stop offset=".8" stop-color="white" stop-opacity="0"/></radialGradient>
<filter id="shadow"><feDropShadow dx="0" dy="26" stdDeviation="24" flood-opacity=".35"/></filter>
</defs>
<rect width="1600" height="1000" fill="url(#bg)"/>
<rect width="1600" height="1000" fill="url(#glow)"/>
<path d="M955 0h645v1000h-385z" fill="white" opacity=".10"/>
<g opacity=".20">
<path d="M900 90h530M860 170h620M930 250h500M885 810h560" stroke="white" stroke-width="5"/>
</g>
<g filter="url(#shadow)"><rect x="895" y="265" width="500" height="300" rx="34" fill="none" stroke="white" stroke-width="20"/>
<rect x="1085" y="570" width="130" height="75" fill="white"/><rect x="970" y="650" width="360" height="44" rx="18" fill="white"/>
<path d="M975 395c105-90 250-90 350 0" fill="none" stroke="#e30613" stroke-width="20" stroke-linecap="round"/></g>
<rect y="440" width="1600" height="560" fill="black" opacity=".24"/>
<text x="88" y="600" font-family="Arial Black,Arial" font-size="92" font-weight="900" fill="white">RTV</text>
<text x="94" y="694" font-family="Arial, sans-serif" font-size="40" font-weight="800" fill="white" opacity=".92">Telewizory • Soundbary • Audio</text>
<rect x="94" y="795" width="380" height="18" rx="9" fill="white" opacity=".95"/>
<text x="94" y="865" font-family="Arial Black,Arial" font-size="30" fill="white" opacity=".9">ELKASS OLESNO</text>
</svg>